HIERARCHY
ROOT reference
{
  OFFSET -65.3212 -1.93545 -120.338
  CHANNELS 6 Xposition Yposition Zposition Zrotation Xrotation Yrotation
  JOINT Hips
  {
    OFFSET 0 78.7191 0
    CHANNELS 6 Xposition Yposition Zposition Zrotation Xrotation Yrotation
    JOINT Chest
    {
      OFFSET 0 8.7983 -4.7612
      CHANNELS 6 Xposition Yposition Zposition Zrotation Xrotation Yrotation
      JOINT Chest2
      {
        OFFSET 0 8.0291 0.4195
        CHANNELS 6 Xposition Yposition Zposition Zrotation Xrotation Yrotation
        JOINT Chest3
        {
          OFFSET 0 9.9351 -2.2114
          CHANNELS 6 Xposition Yposition Zposition Zrotation Xrotation Yrotation
          JOINT Neck
          {
            OFFSET 0 22.3885 -0.4656
            CHANNELS 6 Xposition Yposition Zposition Zrotation Xrotation Yrotation
            JOINT Head
            {
              OFFSET -0.0001 12.643 3.4389
              CHANNELS 6 Xposition Yposition Zposition Zrotation Xrotation Yrotation
              End Site
              {
                OFFSET 0.0001 17.6655 0.5274
              }
            }
          }
          JOINT LeftCollar
          {
            OFFSET 2.2603 21.606 7.4023
            CHANNELS 6 Xposition Yposition Zposition Zrotation Xrotation Yrotation
            JOINT LeftShoulder
            {
              OFFSET 13.5163 -1.1332 -5.0146
              CHANNELS 6 Xposition Yposition Zposition Zrotation Xrotation Yrotation
              JOINT LeftElbow
              {
                OFFSET -0.0995 -28.05 -0.2431
                CHANNELS 6 Xposition Yposition Zposition Zrotation Xrotation Yrotation
                JOINT LeftWrist
                {
                  OFFSET 0.0679 -23.3996 -0.1402
                  CHANNELS 6 Xposition Yposition Zposition Zrotation Xrotation Yrotation
                  JOINT LeftFinger1
                  {
                    OFFSET 0.7932 -9.069 2.5189
                    CHANNELS 6 Xposition Yposition Zposition Zrotation Xrotation Yrotation
                    JOINT LeftFinger11
                    {
                      OFFSET -0.8272 -3.3923 0.5977
                      CHANNELS 6 Xposition Yposition Zposition Zrotation Xrotation Yrotation
                      JOINT LeftFinger12
                      {
                        OFFSET -0.5649 -2.3158 0.4082
                        CHANNELS 6 Xposition Yposition Zposition Zrotation Xrotation Yrotation
                        End Site
                        {
                          OFFSET -0.4919 -1.6479 0.2673
                        }
                      }
                    }
                  }
                  JOINT LeftFinger2
                  {
                    OFFSET 0.9159 -9.2044 0.2193
                    CHANNELS 6 Xposition Yposition Zposition Zrotation Xrotation Yrotation
                    JOINT LeftFinger21
                    {
                      OFFSET 0.0117 -4.1944 -0.0248
                      CHANNELS 6 Xposition Yposition Zposition Zrotation Xrotation Yrotation
                      JOINT LeftFinger22
                      {
                        OFFSET 0.0071 -2.3249 -0.0142
                        CHANNELS 6 Xposition Yposition Zposition Zrotation Xrotation Yrotation
                        End Site
                        {
                          OFFSET -0.1475 -2.0882 0.0028
                        }
                      }
                    }
                  }
                  JOINT LeftFinger3
                  {
                    OFFSET 0.6113 -8.7231 -2.0637
                    CHANNELS 6 Xposition Yposition Zposition Zrotation Xrotation Yrotation
                    JOINT LeftFinger31
                    {
                      OFFSET -0.1927 -3.8059 -0.2383
                      CHANNELS 6 Xposition Yposition Zposition Zrotation Xrotation Yrotation
                      JOINT LeftFinger32
                      {
                        OFFSET -0.1091 -2.1688 -0.1362
                        CHANNELS 6 Xposition Yposition Zposition Zrotation Xrotation Yrotation
                        End Site
                        {
                          OFFSET -0.2358 -1.9176 -0.0906
                        }
                      }
                    }
                  }
                  JOINT LeftFinger4
                  {
                    OFFSET -0.6151 -8.0947 -3.5641
                    CHANNELS 6 Xposition Yposition Zposition Zrotation Xrotation Yrotation
                    JOINT LeftFinger41
                    {
                      OFFSET -0.4882 -2.341 -0.6462
                      CHANNELS 6 Xposition Yposition Zposition Zrotation Xrotation Yrotation
                      JOINT LeftFinger42
                      {
                        OFFSET -0.3575 -1.7167 -0.4742
                        CHANNELS 6 Xposition Yposition Zposition Zrotation Xrotation Yrotation
                        End Site
                        {
                          OFFSET -0.4187 -1.5237 -0.3496
                        }
                      }
                    }
                  }
                  JOINT LeftFinger0
                  {
                    OFFSET -1.42 -1.8761 1.4223
                    CHANNELS 6 Xposition Yposition Zposition Zrotation Xrotation Yrotation
                    JOINT LeftFinger01
                    {
                      OFFSET -1.1471 -3.4929 2.6334
                      CHANNELS 6 Xposition Yposition Zposition Zrotation Xrotation Yrotation
                      JOINT LeftFinger02
                      {
                        OFFSET -0.823 -2.3 1.6571
                        CHANNELS 6 Xposition Yposition Zposition Zrotation Xrotation Yrotation
                        End Site
                        {
                          OFFSET -0.5822 -1.6914 1.1582
                        }
                      }
                    }
                  }
                }
              }
            }
          }
          JOINT RightCollar
          {
            OFFSET -2.2603 21.606 7.4023
            CHANNELS 6 Xposition Yposition Zposition Zrotation Xrotation Yrotation
            JOINT RightShoulder
            {
              OFFSET -13.5187 -1.1334 -5.0155
              CHANNELS 6 Xposition Yposition Zposition Zrotation Xrotation Yrotation
              JOINT RightElbow
              {
                OFFSET 0.0994 -28.0499 -0.2431
                CHANNELS 6 Xposition Yposition Zposition Zrotation Xrotation Yrotation
                JOINT RightWrist
                {
                  OFFSET -0.0679 -23.3996 -0.1402
                  CHANNELS 6 Xposition Yposition Zposition Zrotation Xrotation Yrotation
                  JOINT RightFinger1
                  {
                    OFFSET -0.7932 -9.0691 2.5189
                    CHANNELS 6 Xposition Yposition Zposition Zrotation Xrotation Yrotation
                    JOINT RightFinger11
                    {
                      OFFSET 0.8272 -3.3923 0.5977
                      CHANNELS 6 Xposition Yposition Zposition Zrotation Xrotation Yrotation
                      JOINT RightFinger12
                      {
                        OFFSET 0.565 -2.3158 0.4082
                        CHANNELS 6 Xposition Yposition Zposition Zrotation Xrotation Yrotation
                        End Site
                        {
                          OFFSET 0.4919 -1.6479 0.2673
                        }
                      }
                    }
                  }
                  JOINT RightFinger2
                  {
                    OFFSET -0.916 -9.2044 0.2193
                    CHANNELS 6 Xposition Yposition Zposition Zrotation Xrotation Yrotation
                    JOINT RightFinger21
                    {
                      OFFSET -0.0117 -4.1944 -0.0248
                      CHANNELS 6 Xposition Yposition Zposition Zrotation Xrotation Yrotation
                      JOINT RightFinger22
                      {
                        OFFSET -0.0071 -2.3249 -0.0142
                        CHANNELS 6 Xposition Yposition Zposition Zrotation Xrotation Yrotation
                        End Site
                        {
                          OFFSET 0.1475 -2.0882 0.0028
                        }
                      }
                    }
                  }
                  JOINT RightFinger3
                  {
                    OFFSET -0.6113 -8.7231 -2.0637
                    CHANNELS 6 Xposition Yposition Zposition Zrotation Xrotation Yrotation
                    JOINT RightFinger31
                    {
                      OFFSET 0.1927 -3.8059 -0.2383
                      CHANNELS 6 Xposition Yposition Zposition Zrotation Xrotation Yrotation
                      JOINT RightFinger32
                      {
                        OFFSET 0.1091 -2.1688 -0.1362
                        CHANNELS 6 Xposition Yposition Zposition Zrotation Xrotation Yrotation
                        End Site
                        {
                          OFFSET 0.2358 -1.9176 -0.0906
                        }
                      }
                    }
                  }
                  JOINT RightFinger4
                  {
                    OFFSET 0.6151 -8.0947 -3.564
                    CHANNELS 6 Xposition Yposition Zposition Zrotation Xrotation Yrotation
                    JOINT RightFinger41
                    {
                      OFFSET 0.4882 -2.341 -0.6462
                      CHANNELS 6 Xposition Yposition Zposition Zrotation Xrotation Yrotation
                      JOINT RightFinger42
                      {
                        OFFSET 0.3574 -1.7166 -0.4742
                        CHANNELS 6 Xposition Yposition Zposition Zrotation Xrotation Yrotation
                        End Site
                        {
                          OFFSET 0.4187 -1.5237 -0.3496
                        }
                      }
                    }
                  }
                  JOINT RightFinger0
                  {
                    OFFSET 1.4199 -1.8761 1.4221
                    CHANNELS 6 Xposition Yposition Zposition Zrotation Xrotation Yrotation
                    JOINT RightFinger01
                    {
                      OFFSET 1.1472 -3.4929 2.6336
                      CHANNELS 6 Xposition Yposition Zposition Zrotation Xrotation Yrotation
                      JOINT RightFinger02
                      {
                        OFFSET 0.8229 -2.3 1.6571
                        CHANNELS 6 Xposition Yposition Zposition Zrotation Xrotation Yrotation
                        End Site
                        {
                          OFFSET 0.5822 -1.6914 1.1582
                        }
                      }
                    }
                  }
                }
              }
            }
          }
        }
      }
    }
    JOINT RightHip
    {
      OFFSET -9.412 3.9771 -0.7758
      CHANNELS 6 Xposition Yposition Zposition Zrotation Xrotation Yrotation
      JOINT RightKnee
      {
        OFFSET -0.7531 -40.938 0
        CHANNELS 6 Xposition Yposition Zposition Zrotation Xrotation Yrotation
        JOINT RightAnkle
        {
          OFFSET 0 -40.1986 0
          CHANNELS 6 Xposition Yposition Zposition Zrotation Xrotation Yrotation
          JOINT RightToe
          {
            OFFSET 0 -4.4182 9.239
            CHANNELS 6 Xposition Yposition Zposition Zrotation Xrotation Yrotation
            End Site
            {
              OFFSET 0 0 6.1981
            }
          }
        }
      }
    }
    JOINT LeftHip
    {
      OFFSET 9.4119 3.9773 -0.7758
      CHANNELS 6 Xposition Yposition Zposition Zrotation Xrotation Yrotation
      JOINT LeftKnee
      {
        OFFSET 0.7532 -40.9383 0
        CHANNELS 6 Xposition Yposition Zposition Zrotation Xrotation Yrotation
        JOINT LeftAnkle
        {
          OFFSET 0 -40.1986 0
          CHANNELS 6 Xposition Yposition Zposition Zrotation Xrotation Yrotation
          JOINT LeftToe
          {
            OFFSET 0 -4.4182 9.239
            CHANNELS 6 Xposition Yposition Zposition Zrotation Xrotation Yrotation
            End Site
            {
              OFFSET 0 0 6.1981
            }
          }
        }
      }
    }
  }
}
MOTION
Frames:	4
Frame Time:	0.0333333
-23.2634 -38.8867 -48.409 0 0 -0 3.55271e-015 78.7191 0 1.90848 2.29309 -5.39606 0 8.7983 -4.7612 -3.9645 -0.731488 0.877568 -3.55271e-015 8.0291 0.4195 -7.91837 -1.52181 1.70268 -7.10543e-015 9.9351 -2.2114 -7.91841 -1.52182 1.70268 -7.10543e-015 22.3885 -0.4656 -2.44781 -17.9289 52.5043 -0.0001 12.643 3.4389 -2.26612 28.9672 16.5975 2.2603 21.606 7.4023 9.89515 0.308113 -15.1104 13.5163 -1.1332 -5.0146 -2.44162 -13.9199 14.0224 -0.0995 -28.05 -0.2431 -18.1437 -40.4222 -3.69392 0.0679 -23.3996 -0.1402 -14.4548 15.6738 117.473 0.7932 -9.069 2.5189 -5.04463 10.1113 -1.03128 -0.8272 -3.3923 0.5977 -23.5242 14.2737 1.71884 -0.5649 -2.3158 0.4082 -34.4014 20.0125 4.39545 0.9159 -9.2044 0.2193 -8.80121 6.1041 0.325038 0.0117 -4.1944 -0.0248 -31.506 19.1421 2.30693 0.0071 -2.3249 -0.0142 -11.6596 7.36398 -0.401185 0.6113 -8.7231 -2.0637 -12.9041 6.16147 2.81869 -0.1927 -3.8059 -0.2383 -13.7743 9.60681 -0.676569 -0.1091 -2.1688 -0.1362 -14.9289 10.4071 -0.627742 -0.6151 -8.0947 -3.5641 -1.79169 4.19497 3.71359 -0.4882 -2.341 -0.6462 -18.4122 12.7385 -1.02544 -0.3575 -1.7167 -0.4742 -16.41 11.3618 -1.11444 -1.42 -1.8761 1.4223 -6.91749 -12.4788 -27.4388 -1.1471 -3.4929 2.6334 -4.26781 0.209169 0.325202 -0.823 -2.3 1.6571 0.692055 0.91499 -0.196149 -2.2603 21.606 7.4023 -33.5092 -0.879906 31.8942 -13.5187 -1.1334 -5.0155 -96.3708 -8.60638 -62.0712 0.0994 -28.0499 -0.2431 -15.567 -42.359 -55.2187 -0.0679 -23.3996 -0.1402 9.76086 7.3485 -82.7784 -0.7932 -9.0691 2.5189 -7.60769 11.9965 6.07983 0.8272 -3.3923 0.5977 41.8375 12.6054 -5.5293 0.565 -2.3158 0.4082 42.0495 12.6548 -5.57858 -0.916 -9.2044 0.2193 2.26663 6.82727 1.85952 -0.0117 -4.1944 -0.0248 52.3753 15.6205 -6.40188 -0.00710001 -2.3249 -0.0142 29.5954 9.72811 -1.85872 -0.6113 -8.7231 -2.0637 13.9754 7.30484 -5.62677 0.1927 -3.8059 -0.2383 29.1586 11.0822 -1.21703 0.1091 -2.1688 -0.1362 30.5901 11.5854 -1.41892 0.6151 -8.0947 -3.564 7.14674 4.13436 -7.09797 0.4882 -2.341 -0.6462 28.1534 10.6142 -0.230731 0.3574 -1.7166 -0.4742 22.9475 8.70108 0.2073 1.4199 -1.8761 1.4221 9.0872 -9.51777 50.5482 1.1472 -3.4929 2.6336 0.712999 -0.717406 -0.726348 0.8229 -2.3 1.6571 -5.56101 11.5861 4.27029 -9.412 3.9771 -0.7758 -18.0214 8.55837 -29.7521 -0.7531 -40.938 3.55271e-015 134.546 68.4932 -127.312 -1.42109e-014 -40.1986 -1.77636e-015 10.2556 -3.76589 -3.79564 1.42109e-014 -4.4182 9.239 -3.91252 18.7557 -4.32692 9.4119 3.9773 -0.7758 41.151 -1.99846 12.8696 0.7532 -40.9383 0 -178.622 88.1812 178.218 0 -40.1986 -4.44089e-016 -11.5619 6.09468 -3.59612 0 -4.4182 9.239 0.884201 22.0698 6.89066 
-20.4452 -39.5522 -48.2946 0 0 -0 3.55271e-015 78.7191 0 1.96572 2.45412 -9.71497 3.55271e-015 8.7983 -4.7612 -3.88004 -0.733066 0.965115 0 8.0291 0.4195 -7.7482 -1.52966 1.87862 0 9.9351 -2.2114 -7.74823 -1.52967 1.87864 0 22.3885 -0.4656 -2.58061 -17.7567 52.476 -0.0001 12.643 3.4389 -2.36255 28.8767 16.5153 2.2603 21.606 7.4023 9.56862 0.280862 -15.3152 13.5163 -1.1332 -5.0146 -1.75638 -13.9837 14.296 -0.0995 -28.05 -0.2431 -17.9772 -40.5198 -4.35735 0.0679 -23.3996 -0.1402 -15.0283 15.1261 118.754 0.7932 -9.069 2.5189 -5.01261 10.1701 -1.04834 -0.8272 -3.3923 0.5977 -23.7061 14.376 1.75452 -0.5649 -2.3158 0.4082 -34.4356 20.0292 4.40549 0.9159 -9.2044 0.2193 -8.71036 6.05541 0.333738 0.0117 -4.1944 -0.0248 -31.6699 19.2304 2.34594 0.0071 -2.3249 -0.0142 -11.6262 7.34294 -0.402199 0.6113 -8.7231 -2.0637 -12.8242 6.16706 2.8429 -0.1927 -3.8059 -0.2383 -13.7759 9.60791 -0.676509 -0.1091 -2.1688 -0.1362 -14.9347 10.4111 -0.627466 -0.6151 -8.0947 -3.5641 -1.59565 4.12992 3.76789 -0.4882 -2.341 -0.6462 -18.4052 12.7337 -1.02583 -0.3575 -1.7167 -0.4742 -16.3188 11.2987 -1.11736 -1.42 -1.8761 1.4223 -6.95387 -12.543 -27.7564 -1.1471 -3.4929 2.6334 -4.27178 0.210122 0.325024 -0.823 -2.3 1.6571 0.80402 1.06233 -0.228804 -2.2603 21.606 7.4023 -34.0876 -0.882821 31.7208 -13.5187 -1.1334 -5.0155 -97.2151 -8.35788 -62.3064 0.0994 -28.0499 -0.2431 -15.4185 -42.3772 -55.1504 -0.0679 -23.3996 -0.1402 8.8695 9.94512 -81.603 -0.7932 -9.0691 2.5189 -7.31344 12.0338 6.0161 0.8272 -3.3923 0.5977 41.8751 12.6141 -5.53809 0.565 -2.3158 0.4082 42.1012 12.6667 -5.5907 -0.916 -9.2044 0.2193 2.33505 6.7737 1.81073 -0.0117 -4.1944 -0.0248 52.3753 15.6206 -6.40182 -0.0071 -2.3249 -0.0142 29.3731 9.66135 -1.82644 -0.6113 -8.7231 -2.0637 13.9595 7.30048 -5.62562 0.1927 -3.8059 -0.2383 29.0332 11.0377 -1.19984 0.1091 -2.1688 -0.1362 30.4671 11.5423 -1.40101 0.6151 -8.0947 -3.564 6.89743 4.13005 -7.08201 0.4882 -2.341 -0.6462 28.1131 10.5997 -0.226661 0.3574 -1.7166 -0.4742 22.8278 8.65644 0.215292 1.4199 -1.8761 1.4221 9.10291 -9.67949 50.5131 1.1472 -3.4929 2.6336 0.723157 -0.713187 -0.739239 0.8229 -2.3 1.6571 -5.58509 11.631 4.28972 -9.412 3.9771 -0.7758 -18.0782 8.17547 -30.4529 -0.7531 -40.938 3.55271e-015 137.363 67.3365 -130.048 1.42109e-014 -40.1986 0 10.8547 -3.57416 -2.87061 1.42109e-014 -4.4182 9.239 -4.08069 18.3666 -4.37724 9.4119 3.9773 -0.7758 40.988 -1.75771 12.1431 0.7532 -40.9383 -7.10543e-015 -179.251 87.7396 178.938 0 -40.1986 -2.22045e-015 -10.3901 6.24407 -4.29697 0 -4.4182 9.239 0.891764 22.8373 7.04455 
-17.7678 -40.1897 -47.9643 0 0 -0 3.55271e-015 78.7191 0 2.02593 2.55715 -14.0944 0 8.7983 -4.7612 -3.82673 -0.735697 1.07272 -3.55271e-015 8.0291 0.4195 -7.64007 -1.54122 2.09422 0 9.9351 -2.2114 -7.64009 -1.54122 2.09423 -7.10543e-015 22.3885 -0.4656 -2.7196 -17.6809 52.2857 -0.0001 12.643 3.4389 -2.28438 28.5546 16.5229 2.2603 21.606 7.4023 9.30675 0.244949 -15.5941 13.5163 -1.1332 -5.0146 -0.971366 -13.6923 14.7477 -0.0995 -28.05 -0.2431 -18.2204 -41.0026 -5.26869 0.0679 -23.3996 -0.1402 -15.3588 14.6792 120.003 0.7932 -9.069 2.5189 -4.98669 10.2142 -1.06214 -0.8272 -3.3923 0.5977 -23.8708 14.4685 1.78716 -0.5649 -2.3158 0.4082 -34.4697 20.0459 4.41556 0.9159 -9.2044 0.2193 -8.60621 5.99714 0.341479 0.0117 -4.1944 -0.0248 -31.8339 19.3185 2.38522 0.0071 -2.3249 -0.0142 -11.5929 7.32191 -0.403221 0.6113 -8.7231 -2.0637 -12.7444 6.17271 2.86713 -0.1927 -3.8059 -0.2383 -13.7775 9.609 -0.67647 -0.1091 -2.1688 -0.1362 -14.9406 10.4152 -0.627185 -0.6151 -8.0947 -3.5641 -1.39961 4.06506 3.82242 -0.4882 -2.341 -0.6462 -18.3983 12.729 -1.02622 -0.3575 -1.7167 -0.4742 -16.2158 11.2275 -1.12052 -1.42 -1.8761 1.4223 -6.99063 -12.607 -28.074 -1.1471 -3.4929 2.6334 -4.27571 0.211095 0.324873 -0.823 -2.3 1.6571 0.916064 1.20964 -0.261777 -2.2603 21.606 7.4023 -34.4092 -0.878218 31.4935 -13.5187 -1.1334 -5.0155 -98.142 -8.35755 -62.7071 0.0994 -28.0499 -0.2431 -15.3159 -42.3037 -55.3069 -0.0679 -23.3996 -0.1402 7.954 12.6247 -79.9019 -0.7932 -9.0691 2.5189 -7.01908 12.0707 5.95222 0.8272 -3.3923 0.5977 41.9127 12.6228 -5.54689 0.565 -2.3158 0.4082 42.1529 12.6786 -5.60281 -0.916 -9.2044 0.2193 2.40351 6.72008 1.76204 -0.0117 -4.1944 -0.0248 52.3753 15.6205 -6.40197 -0.0071 -2.3249 -0.0142 29.151 9.5945 -1.79445 -0.6113 -8.7231 -2.0637 13.9436 7.29613 -5.62444 0.1927 -3.8059 -0.2383 28.9078 10.9932 -1.18274 0.1091 -2.1688 -0.1362 30.3442 11.4993 -1.38319 0.6151 -8.0947 -3.564 6.64818 4.12572 -7.06608 0.4882 -2.341 -0.6462 28.0728 10.5851 -0.222633 0.3574 -1.7166 -0.4742 22.7081 8.61185 0.223232 1.4199 -1.8761 1.4221 9.11855 -9.84124 50.4779 1.1472 -3.4929 2.6336 0.733348 -0.708934 -0.752086 0.8229 -2.3 1.6571 -5.60921 11.6759 4.30918 -9.412 3.9771 -0.7758 -18.0345 7.81831 -31.2226 -0.7531 -40.938 -3.55271e-015 139.619 66.262 -132.295 1.42109e-014 -40.1986 -3.55271e-015 11.0909 -3.77713 -2.82968 1.42109e-014 -4.4182 9.239 -4.18013 18.3714 -4.42617 9.4119 3.9773 -0.7758 40.6505 -1.35335 11.7704 0.7532 -40.9383 0 -179.679 87.0266 179.402 3.55271e-015 -40.1986 -1.33227e-015 -10.0187 5.95599 -4.49992 -7.10543e-015 -4.4182 9.239 0.897128 23.6048 7.19919 
-15.225 -40.8035 -47.5186 0 0 -0 5.32907e-015 78.7191 0 2.07123 2.69558 -18.6297 0 8.7983 -4.7612 -3.76321 -0.750321 1.18076 3.55271e-015 8.0291 0.4195 -7.51124 -1.57638 2.31002 7.10543e-015 9.9351 -2.2114 -7.51127 -1.57639 2.31002 7.10543e-015 22.3885 -0.4656 -2.9178 -17.8982 52.3621 -0.0001 12.643 3.4389 -2.04883 28.3532 16.3281 2.2603 21.606 7.4023 8.94475 0.210299 -15.8594 13.5163 -1.1332 -5.0146 -0.0529144 -13.004 15.3533 -0.0995 -28.05 -0.2431 -18.7727 -41.9832 -6.74994 0.0679 -23.3996 -0.1402 -15.6152 14.2259 121.671 0.7932 -9.069 2.5189 -4.96072 10.2582 -1.07599 -0.8272 -3.3923 0.5977 -24.0357 14.561 1.8201 -0.5649 -2.3158 0.4082 -34.496 20.0588 4.42332 0.9159 -9.2044 0.2193 -8.50203 5.93889 0.34931 0.0117 -4.1944 -0.0248 -31.984 19.399 2.42138 0.0071 -2.3249 -0.0142 -11.5544 7.29764 -0.404329 0.6113 -8.7231 -2.0637 -12.6645 6.17838 2.89131 -0.1927 -3.8059 -0.2383 -13.779 9.6101 -0.676402 -0.1091 -2.1688 -0.1362 -14.9465 10.4192 -0.62693 -0.6151 -8.0947 -3.5641 -1.20349 4.00036 3.87717 -0.4882 -2.341 -0.6462 -18.3888 12.7225 -1.02675 -0.3575 -1.7167 -0.4742 -16.1128 11.1563 -1.12354 -1.42 -1.8761 1.4223 -7.02774 -12.6709 -28.3918 -1.1471 -3.4929 2.6334 -4.27965 0.212067 0.324705 -0.823 -2.3 1.6571 1.0282 1.35686 -0.295032 -2.2603 21.606 7.4023 -34.9892 -0.878934 31.2639 -13.5187 -1.1334 -5.0155 -98.7158 -8.35646 -63.0175 0.0994 -28.0499 -0.2431 -15.5573 -42.5279 -55.9739 -0.0679 -23.3996 -0.1402 6.89539 15.2952 -78.3462 -0.7932 -9.0691 2.5189 -6.72466 12.1073 5.88812 0.8272 -3.3923 0.5977 41.9503 12.6315 -5.55571 0.565 -2.3158 0.4082 42.2046 12.6905 -5.61496 -0.916 -9.2044 0.2193 2.47185 6.66641 1.71341 -0.0117 -4.1944 -0.0248 52.3753 15.6205 -6.40197 -0.0071 -2.3249 -0.0142 28.929 9.52754 -1.76274 -0.6113 -8.7231 -2.0637 13.9277 7.29177 -5.6233 0.1927 -3.8059 -0.2383 28.7824 10.9487 -1.16582 0.1091 -2.1688 -0.1362 30.2213 11.4562 -1.36547 0.6151 -8.0947 -3.564 6.39887 4.1213 -7.05015 0.4882 -2.341 -0.6462 28.0326 10.5705 -0.218594 0.3574 -1.7166 -0.4742 22.5885 8.56724 0.231009 1.4199 -1.8761 1.4221 9.13409 -10.003 50.4428 1.1472 -3.4929 2.6336 0.743573 -0.704697 -0.764924 0.8229 -2.3 1.6571 -5.63334 11.7208 4.32866 -9.412 3.9771 -0.7758 -17.9695 7.42984 -31.7526 -0.7531 -40.938 0 141.616 65.1921 -134.311 -1.42109e-014 -40.1986 -1.77636e-015 11.0716 -4.03401 -2.58217 0 -4.4182 9.239 -4.26034 18.639 -4.46399 9.4119 3.9773 -0.7758 40.3045 -0.694036 11.9992 0.7532 -40.9383 0 -179.978 86.1608 179.758 0 -40.1986 -8.88179e-016 -9.3979 5.23117 -4.71863 7.10543e-015 -4.4182 9.239 0.916301 24.2845 7.35396 
